HIERARCHY
ROOT SpineBase
{
  OFFSET 0.000000 0.000000 0.000000
  CHANNELS 6 Xposition Yposition Zposition Zrotation Xrotation Yrotation
  JOINT SpineMid
  {
    OFFSET 0.000000 27.103125 0.000000
    CHANNELS 3 Zrotation Xrotation Yrotation
    JOINT SpineShoulder
    {
      OFFSET -0.091805 20.164546 -0.704476
      CHANNELS 3 Zrotation Xrotation Yrotation
      JOINT Neck
      {
        OFFSET -0.049368 6.679457 -0.517360
        CHANNELS 3 Zrotation Xrotation Yrotation
        JOINT Head
        {
          OFFSET 3.394986 13.818617 1.306506
          CHANNELS 3 Zrotation Xrotation Yrotation
          End Site
          {
            OFFSET 0 0 0
          }
        }
      }
      JOINT ShoulderLeft
      {
        OFFSET -10.354614 -3.193342 -8.782460
        CHANNELS 3 Zrotation Xrotation Yrotation
        JOINT ElbowLeft
        {
          OFFSET -4.918467 -20.704309 -3.359951
          CHANNELS 3 Zrotation Xrotation Yrotation
          JOINT WristLeft
          {
            OFFSET 1.938595 -20.158110 -5.593764
            CHANNELS 3 Zrotation Xrotation Yrotation
            JOINT HandLeft
            {
              OFFSET 1.570047 -5.931107 -1.439604
              CHANNELS 3 Zrotation Xrotation Yrotation
              JOINT HandTipLeft
              {
                OFFSET 2.599491 -5.223359 -3.413373
                CHANNELS 3 Zrotation Xrotation Yrotation
                End Site
                {
                  OFFSET 0 0 0
                }
              }
              JOINT ThumbLeft
              {
                OFFSET 3.014549 -0.386575 -1.999713
                CHANNELS 3 Zrotation Xrotation Yrotation
                End Site
                {
                  OFFSET 0 0 0
                }
              }
            }
          }
        }
      }
      JOINT ShoulderRight
      {
        OFFSET 11.568773 -4.824145 5.583179
        CHANNELS 3 Zrotation Xrotation Yrotation
        JOINT ElbowRight
        {
          OFFSET 0.806414 -21.124967 1.326015
          CHANNELS 3 Zrotation Xrotation Yrotation
          JOINT WristRight
          {
            OFFSET 3.344111 -20.907190 -3.168733
            CHANNELS 3 Zrotation Xrotation Yrotation
            JOINT HandRight
            {
              OFFSET -0.275902 -9.184117 -2.414248
              CHANNELS 3 Zrotation Xrotation Yrotation
              JOINT HandTipRight
              {
                OFFSET -0.159921 -6.004737 -1.402268
                CHANNELS 3 Zrotation Xrotation Yrotation
                End Site
                {
                  OFFSET 0 0 0
                }
              }
              JOINT ThumbRight
              {
                OFFSET -0.075789 0.050496 -4.810425
                CHANNELS 3 Zrotation Xrotation Yrotation
                End Site
                {
                  OFFSET 0 0 0
                }
              }
            }
          }
        }
      }
    }
  }
  JOINT HipLeft
  {
    OFFSET -5.001519 1.352568 -6.220286
    CHANNELS 3 Zrotation Xrotation Yrotation
    JOINT KneeLeft
    {
      OFFSET -7.584515 -29.517905 -2.108935
      CHANNELS 3 Zrotation Xrotation Yrotation
      JOINT AnkleLeft
      {
        OFFSET -4.992984 -32.385056 6.194183
        CHANNELS 3 Zrotation Xrotation Yrotation
        JOINT FootLeft
        {
          OFFSET 4.309661 -8.189804 -1.809510
          CHANNELS 3 Zrotation Xrotation Yrotation
          End Site
          {
            OFFSET 0 0 0
          }
        }
      }
    }
  }
  JOINT HipRight
  {
    OFFSET 4.761890 0.339721 -0.033413
    CHANNELS 3 Zrotation Xrotation Yrotation
    JOINT KneeRight
    {
      OFFSET -3.793353 -29.214153 0.462538
      CHANNELS 3 Zrotation Xrotation Yrotation
      JOINT AnkleRight
      {
        OFFSET -6.493700 -34.893403 5.737869
        CHANNELS 3 Zrotation Xrotation Yrotation
        JOINT FootRight
        {
          OFFSET 2.845833 -3.423041 -8.930069
          CHANNELS 3 Zrotation Xrotation Yrotation
          End Site
          {
            OFFSET 0 0 0
          }
        }
      }
    }
  }
}
MOTION
Frames: 10
Frame Time: 0.033333
15.526024 71.058583 355.664505 -0.000000 0.000000 -32.361600 0.000000 0.000000 32.361600 -0.000000 0.000000 0.000000 -0.000000 0.000000 0.000000 0.000000 0.000000 0.000000 -0.000000 0.000000 0.000000 -0.000000 0.000000 0.000000 -0.000000 0.000000 0.000000 -0.000000 0.000000 0.000000 0.000000 0.000000 0.000000 0.000000 0.000000 0.000000 -0.000000 0.000000 0.000000 -0.000000 0.000000 0.000000 -0.000000 0.000000 0.000000 -0.000000 0.000000 0.000000 0.000000 0.000000 0.000000 0.000000 0.000000 0.000000 0.000000 0.000000 32.361600 -0.000000 0.000000 0.000000 -0.000000 0.000000 0.000000 0.000000 0.000000 0.000000 0.000000 0.000000 32.361600 -0.000000 0.000000 0.000000 -0.000000 0.000000 0.000000 0.000000 0.000000 0.000000
15.467917 71.053769 355.627580 -0.068160 0.114958 -32.147630 0.118879 -0.061064 32.147761 -0.000000 0.000000 0.000000 -0.469989 0.998477 -0.196423 0.000000 0.000000 0.000000 -0.000000 0.000000 0.000000 -0.000000 0.000000 0.000000 1.509243 0.285335 -0.293371 -3.431205 -0.135947 1.627849 0.000000 0.000000 0.000000 0.000000 0.000000 0.000000 -0.000000 0.000000 0.000000 -0.000000 0.000000 0.000000 0.255794 -0.834265 -0.040396 -0.195596 -1.131170 0.082934 0.000000 0.000000 0.000000 0.000000 0.000000 0.000000 1.106754 -0.433519 32.322863 -0.635731 0.842897 -0.166162 2.656435 7.561423 3.137280 0.000000 0.000000 0.000000 0.118879 -0.061064 32.147761 -0.000000 0.000000 0.000000 -0.000000 0.000000 0.000000 0.000000 0.000000 0.000000
15.426519 71.044191 355.598123 -0.120955 0.212721 -31.911719 0.215122 -0.116632 31.912163 -0.000000 0.000000 0.000000 -0.852685 1.819963 -0.351833 0.000000 0.000000 0.000000 -1.034450 -0.102440 0.190907 0.192387 -0.230531 0.008107 3.550242 0.913882 -0.729190 -6.145551 -0.499697 2.804427 0.000000 0.000000 0.000000 0.000000 0.000000 0.000000 -0.000000 0.000000 0.000000 -0.000000 0.000000 0.000000 0.436402 -1.629500 -0.059787 -0.471898 -2.073959 0.180507 0.000000 0.000000 0.000000 0.000000 0.000000 0.000000 1.961998 -0.779158 32.227778 -1.124850 1.491743 -0.287314 4.691829 13.631734 5.348420 0.000000 0.000000 0.000000 0.215122 -0.116632 31.912163 0.804191 -0.664970 0.260754 -0.237738 1.770719 -0.786503 0.000000 0.000000 0.000000
15.401830 71.029847 355.576134 -0.158519 0.293480 -31.653247 -0.449207 0.182836 31.641748 -0.176533 0.112548 -0.030282 -0.525083 1.657674 -0.437697 0.000000 0.000000 0.000000 -0.718220 -0.893191 0.266352 0.233211 -0.319410 0.024748 4.719330 1.323904 -0.948110 -8.203835 -1.051390 3.566115 0.000000 0.000000 0.000000 0.000000 0.000000 0.000000 1.287043 -0.287555 0.114080 -0.665929 -0.508101 -0.064146 0.540165 -2.375359 -0.059762 -0.831828 -2.806776 0.290623 0.000000 0.000000 0.000000 0.000000 0.000000 0.000000 2.563909 -1.035703 32.070927 -1.467272 1.943705 -0.368089 6.193088 17.596790 6.583848 0.000000 0.000000 0.000000 0.288951 -0.166633 31.654074 1.044552 -0.919334 0.351376 -0.120569 2.630164 -1.268132 0.000000 0.000000 0.000000
15.393851 71.010738 355.561613 -0.180949 0.357389 -31.371495 -0.523542 0.212016 31.358300 -0.198945 0.123404 -0.034866 -0.632121 1.963743 -0.515349 0.000000 0.000000 0.000000 -0.787699 -0.983613 0.284315 0.242913 -0.388249 0.049051 5.497380 1.710978 -1.063922 -9.650714 -1.773017 3.937766 0.000000 0.000000 0.000000 0.000000 0.000000 0.000000 1.725618 -0.176253 0.156461 -1.949445 -0.986873 -0.008119 1.500548 -2.832057 -0.151593 -1.276284 -3.313954 0.412420 0.000000 0.000000 0.000000 0.000000 0.000000 0.000000 2.911602 -1.201194 31.848002 -1.662830 2.196838 -0.411742 7.239305 19.135433 6.848855 0.000000 0.000000 0.000000 0.340549 -0.210940 31.372686 1.174951 -1.120992 0.413457 0.152488 3.464033 -1.804584 0.000000 0.000000 0.000000
15.402581 70.986865 355.554560 -0.188309 0.404562 -31.065642 -0.561237 0.224961 31.051628 -0.203760 0.121500 -0.036685 -0.701980 2.136929 -0.559593 0.000000 0.000000 0.000000 -0.770910 -0.971257 0.269784 0.223305 -0.436592 0.080817 5.890727 2.080949 -1.073433 -10.513750 -2.665411 3.931115 0.000000 0.000000 0.000000 0.000000 0.000000 0.000000 2.169788 0.036999 0.198373 -2.691658 -1.546784 -0.058438 1.787409 -3.178911 -0.131482 -1.804055 -3.585807 0.546477 0.000000 0.000000 0.000000 0.000000 0.000000 0.000000 3.004918 -1.272699 31.555797 -1.711191 2.249796 -0.420078 7.823519 18.053342 6.159228 0.000000 0.000000 0.000000 0.370066 -0.249363 31.067112 1.194534 -1.269611 0.446008 0.579282 4.266456 -2.391567 0.000000 0.000000 0.000000
15.434316 70.959145 355.551450 -0.156749 0.410128 -30.666872 -0.547197 0.212847 30.653625 -0.173763 0.088741 -0.033202 -0.944429 2.343317 -0.581526 0.000000 0.000000 0.000000 -0.593108 -0.656243 0.170043 -0.208311 -0.575810 0.245141 6.126626 2.303674 -1.058231 -10.220095 -4.704674 2.649599 0.000000 0.000000 0.000000 0.000000 0.000000 0.000000 2.871734 0.553129 0.254708 -4.065032 -2.411699 -0.149417 1.973411 -3.562760 -0.043694 -3.344337 -3.425301 0.909286 0.000000 0.000000 0.000000 0.000000 0.000000 0.000000 2.672087 -1.167602 31.091934 -1.532575 1.967671 -0.368094 6.715339 9.906629 3.006881 0.000000 0.000000 0.000000 0.344014 -0.272818 30.668252 0.736295 -1.283065 0.367874 2.468006 6.052613 -4.306834 0.000000 0.000000 0.000000
15.508442 70.929462 355.570732 -0.081245 0.390122 -30.219689 -0.502015 0.166943 30.208310 -0.129674 0.042846 -0.026520 -1.002382 2.264050 -0.548375 0.000000 0.000000 0.000000 -0.191043 -0.155557 -0.003210 -1.141754 -1.192466 0.488916 6.818583 3.460465 -1.040090 -11.297507 -7.378596 1.805223 0.000000 0.000000 0.000000 0.000000 0.000000 0.000000 3.486088 1.035336 0.290991 -5.414118 -3.246522 -0.263659 2.546416 -3.059385 -0.066001 -4.483947 -5.903678 1.166846 0.000000 0.000000 0.000000 0.000000 0.000000 0.000000 1.907310 -0.916754 30.509985 -1.098895 1.367282 -0.258849 2.895812 -0.619793 -0.939053 0.000000 0.000000 0.000000 0.266562 -0.296212 30.220655 0.665643 -1.296541 0.358009 4.294648 8.010515 -6.723543 0.000000 0.000000 0.000000
15.567594 70.890817 355.572324 -0.028807 0.375111 -30.049447 0.212774 -0.310268 30.050118 -0.000000 0.000000 0.000000 -1.350677 2.434607 -0.439660 0.000000 0.000000 0.000000 -0.413661 1.090889 -0.187638 -0.689887 -1.061221 0.485259 3.536849 2.974919 -0.159050 -7.336525 -9.401188 -0.858080 0.000000 0.000000 0.000000 0.000000 0.000000 0.000000 3.499084 2.204004 0.236531 -6.434321 -3.965610 -0.374697 2.654882 -2.095039 -0.016930 -4.614637 -6.715433 1.133380 0.000000 0.000000 0.000000 0.000000 0.000000 0.000000 1.010257 -0.552150 30.172064 -0.055980 -0.009299 0.077785 0.943843 2.487300 0.428845 0.000000 0.000000 0.000000 0.212774 -0.310268 30.050118 0.332308 -1.299958 0.299950 3.199239 6.511219 -4.666760 0.000000 0.000000 0.000000
15.572430 70.845770 355.571563 -0.101717 0.434156 -29.822175 0.304161 -0.326075 29.823426 -0.000000 0.000000 0.000000 -0.947598 1.956355 -0.373551 0.000000 0.000000 0.000000 -0.433878 1.111028 -0.188856 0.437620 -1.109560 0.197301 1.897463 2.785662 0.228463 -5.946258 -7.474299 -0.424258 0.000000 0.000000 0.000000 0.000000 0.000000 0.000000 3.762230 2.581051 0.250039 -6.964305 -4.787118 -0.504481 2.586653 -2.239634 0.105591 -4.207764 -6.378779 1.042173 0.000000 0.000000 0.000000 0.000000 0.000000 0.000000 0.304161 -0.326075 29.823426 -0.000000 0.000000 0.000000 0.417863 -5.887067 -3.200874 0.000000 0.000000 0.000000 0.304161 -0.326075 29.823426 0.069011 -1.304711 0.254504 3.450413 6.535366 -4.595131 0.000000 0.000000 0.000000
